# xmcd
#
# Track frame offsets: 
#        150
#        20847
#        36535
#
# Disc length: 705 seconds
#
# Revision: 0
# Processed by: cddbd v1.4PL0 Copyright (c) Steve Scherf et al.
# Submitted via: ExactAudioCopy v0.95a4
#
DISCID=2502bf03
DTITLE=Johnny Winter - Please Come Home For Christmas
DYEAR=1992
DGENRE=Blues
TTITLE0=Please Come Home For Christmas
TTITLE1=Johnny Guitar
TTITLE2=Illustrated Man
EXTD=
EXTT0=
EXTT1=
EXTT2=
PLAYORDER=
